# xmcd
# 
# Track frame offsets:
#     150
#     18392
#     42449
#     55696
#     77554
#     94459
#     118467
#     135999
#     156144
#     175679
# 
# Disc length: 2588
# 
# Revision: 1
# Processed by: cddbd v1.5.2PL0 Copyright (c) Steve Scherf et al.
# Submitted via: fre:ac v1.0.27
# 
DISCID=7c0a1a0a
DTITLE=Raymond Fol - Echoes of Harlem
DYEAR=1975
DGENRE=Jazz
TTITLE0=Cherokee
TTITLE1=Echoes of Harlem
TTITLE2=There was nobody looking
TTITLE3=Lotus blossom
TTITLE4=Jump for joy
TTITLE5=Perdido
TTITLE6=Triptic
TTITLE7=Change my ways
TTITLE8=Live and love tonight
TTITLE9=Gone with the wind
EXTD=YEAR: 1975
EXTT0=
EXTT1=
EXTT2=
EXTT3=
EXTT4=
EXTT5=
EXTT6=
EXTT7=
EXTT8=
EXTT9=
PLAYORDER=
